<mxfile host="app.diagrams.net" agent="Mozilla/5.0 (Windows NT 10.0; Win64; x64) AppleWebKit/537.36 (KHTML, like Gecko) Chrome/128.0.0.0 Safari/537.36 Edg/128.0.0.0" version="24.7.12">
  <diagram name="第 1 页" id="UR_72055VIpuuOCwC4kO">
    <mxGraphModel dx="1379" dy="793" grid="1" gridSize="10" guides="1" tooltips="1" connect="1" arrows="1" fold="1" page="1" pageScale="1" pageWidth="827" pageHeight="1169" math="0" shadow="0">
      <root>
        <mxCell id="0" />
        <mxCell id="1" parent="0" />
        <mxCell id="jqi0UmJJA7I-8qgrXb-F-7" value="" style="group" parent="1" vertex="1" connectable="0">
          <mxGeometry x="110" y="350" width="550" height="75" as="geometry" />
        </mxCell>
        <mxCell id="jqi0UmJJA7I-8qgrXb-F-6" value="" style="rounded=0;whiteSpace=wrap;html=1;" parent="jqi0UmJJA7I-8qgrXb-F-7" vertex="1">
          <mxGeometry x="-30" y="-15" width="580" height="90" as="geometry" />
        </mxCell>
        <mxCell id="jqi0UmJJA7I-8qgrXb-F-3" value="" style="edgeStyle=orthogonalEdgeStyle;rounded=0;orthogonalLoop=1;jettySize=auto;html=1;strokeWidth=2;" parent="jqi0UmJJA7I-8qgrXb-F-7" source="jqi0UmJJA7I-8qgrXb-F-1" target="jqi0UmJJA7I-8qgrXb-F-2" edge="1">
          <mxGeometry relative="1" as="geometry" />
        </mxCell>
        <mxCell id="jqi0UmJJA7I-8qgrXb-F-1" value="统一登录&lt;br&gt;登录-账密校验" style="rounded=0;whiteSpace=wrap;html=1;fillColor=#d5e8d4;strokeColor=#82b366;strokeWidth=2;" parent="jqi0UmJJA7I-8qgrXb-F-7" vertex="1">
          <mxGeometry width="120" height="60" as="geometry" />
        </mxCell>
        <mxCell id="jqi0UmJJA7I-8qgrXb-F-5" value="" style="edgeStyle=orthogonalEdgeStyle;rounded=0;orthogonalLoop=1;jettySize=auto;html=1;strokeWidth=2;" parent="jqi0UmJJA7I-8qgrXb-F-7" source="jqi0UmJJA7I-8qgrXb-F-2" target="jqi0UmJJA7I-8qgrXb-F-4" edge="1">
          <mxGeometry relative="1" as="geometry" />
        </mxCell>
        <mxCell id="jqi0UmJJA7I-8qgrXb-F-2" value="OAM服务" style="whiteSpace=wrap;html=1;rounded=0;fillColor=#ffe6cc;strokeColor=#d79b00;strokeWidth=2;" parent="jqi0UmJJA7I-8qgrXb-F-7" vertex="1">
          <mxGeometry x="200" width="120" height="60" as="geometry" />
        </mxCell>
        <mxCell id="jqi0UmJJA7I-8qgrXb-F-4" value="AD域" style="whiteSpace=wrap;html=1;rounded=0;fillColor=#fff2cc;strokeColor=#d6b656;strokeWidth=2;" parent="jqi0UmJJA7I-8qgrXb-F-7" vertex="1">
          <mxGeometry x="400" width="120" height="60" as="geometry" />
        </mxCell>
      </root>
    </mxGraphModel>
  </diagram>
</mxfile>
